<svg xmlns="http://www.w3.org/2000/svg" width="36" height="36" fill="#000"><g fill="#c5f74f" clip-path="url(#a)"><path d="M8.338 17.39a1.505 1.505 0 0 0-.573-2.068 1.546 1.546 0 0 0-2.09.58L.758 24.48a1.505 1.505 0 0 0 .573 2.067c.736.41 1.672.151 2.09-.58zM18.935 10.811a1.505 1.505 0 0 0-.573-2.067 1.546 1.546 0 0 0-2.09.58l-4.917 8.579a1.505 1.505 0 0 0 .574 2.067c.735.41 1.67.151 2.09-.58zM35.242 10.811a1.505 1.505 0 0 0-.573-2.067 1.546 1.546 0 0 0-2.09.58l-4.917 8.579a1.505 1.505 0 0 0 .573 2.067c.736.41 1.671.151 2.09-.58zM24.642 17.39a1.505 1.505 0 0 0-.574-2.068 1.546 1.546 0 0 0-2.09.58l-4.916 8.579a1.505 1.505 0 0 0 .573 2.067c.736.41 1.671.151 2.09-.58z"/></g><defs><clipPath id="a"><path fill="#000" d="M0 0h36v36H0z"/></clipPath></defs></svg>